<?xml version="1.0" encoding="utf-8"?>
<!-- Generator: Adobe Illustrator 23.0.1, SVG Export Plug-In . SVG Version: 6.00 Build 0)  -->
<svg version="1.1" id="svg" xmlns="http://www.w3.org/2000/svg" xmlns:xlink="http://www.w3.org/1999/xlink" x="0px" y="0px"
	 viewBox="0 0 400 400" style="enable-background:new 0 0 400 400;" xml:space="preserve">
<style type="text/css">
	.st0{fill-rule:evenodd;clip-rule:evenodd;fill:#C5C5C5;}
	.st1{fill-rule:evenodd;clip-rule:evenodd;fill:#FFFFFF;}
	.st2{fill-rule:evenodd;clip-rule:evenodd;fill:#575757;}
	.st3{fill-rule:evenodd;clip-rule:evenodd;fill:#7C7C7C;}
	.st4{fill-rule:evenodd;clip-rule:evenodd;fill:#747474;}
</style>
<g id="svgg">
	<path id="path0" class="st0" d="M187.7,0.3c0.4,0.1,1,0.1,1.4,0c0.4-0.1,0.1-0.2-0.7-0.2C187.6,0.1,187.3,0.2,187.7,0.3 M210.9,0.3
		c0.4,0.1,1,0.1,1.4,0c0.4-0.1,0.1-0.2-0.7-0.2C210.8,0.1,210.5,0.2,210.9,0.3 M124.8,14c-0.3,0.2-0.5,0.5-0.4,0.6
		c0.1,0.1,0.6,0,1-0.4C126.3,13.6,125.8,13.4,124.8,14 M120,16c-0.3,0.2-0.5,0.5-0.4,0.6c0.1,0.1,0.6,0,1-0.4
		C121.5,15.6,121,15.4,120,16 M280,16.4c0,0.2,0.2,0.3,0.4,0.2s0.4-0.1,0.4,0.1s0.4,0.4,0.9,0.4c0.9,0.1,0.9,0-0.1-0.5
		C280.4,15.9,280,15.9,280,16.4 M118.1,16.8c-0.4,0.2-0.4,0.4-0.1,0.6c0.2,0.1,0.4,0.1,0.4-0.2c0-0.2,0.2-0.3,0.4-0.2
		c0.2,0.1,0.4,0.1,0.4-0.2C119.2,16.3,118.8,16.3,118.1,16.8 M115,18.1c-0.9,0.5-1.7,1-1.7,1.2c-0.1,0.2-0.3,0.3-0.4,0.2
		c-0.2-0.1-0.7,0.2-1.2,0.6c-0.5,0.4-0.8,0.8-0.7,0.8c0.6,0,6.3-3,6.3-3.3C117.2,17,116.8,17.2,115,18.1 M282.8,17.5
		c0,0.4,5.3,2.9,5.6,2.6c0.3-0.3-0.9-1-1.3-0.7c-0.2,0.1-0.3,0-0.3-0.1c0-0.2-0.8-0.7-1.8-1.2C283,17.1,282.8,17.1,282.8,17.5
		 M105.5,23.2c-1.3,0.7-2.3,1.3-2.3,1.4c0,0.1,1.1-0.3,2.4-1s2.4-1.3,2.4-1.4C108,21.9,108.1,21.9,105.5,23.2 M294.4,23.4
		c0,0.1,0.5,0.5,1.2,0.8c0.7,0.3,1.2,0.5,1.2,0.4s-0.5-0.5-1.2-0.8C294.9,23.5,294.4,23.3,294.4,23.4 M98.6,26.9
		c-2.9,1.6-10.2,6.4-10.1,6.6c0.1,0.1,1-0.3,1.9-1c0.9-0.7,3.5-2.3,5.7-3.6C99.5,26.8,101.3,25.4,98.6,26.9 M303.1,28.4
		c1.8,1.1,4.4,2.7,5.7,3.6c1.3,0.9,2.5,1.6,2.6,1.5c0.3-0.3-10.5-7.1-11.3-7.1C299.9,26.4,301.3,27.3,303.1,28.4 M86.3,34.7
		c-0.8,0.6-1.5,1.2-1.5,1.4c0,0.3,1.3-0.5,3.2-2C88.8,33.5,87.5,33.9,86.3,34.7 M313.2,34.7c0,0.2,0.4,0.7,1,1c0.5,0.4,1,0.5,1,0.3
		s-0.5-0.7-1-1C313.6,34.7,313.2,34.5,313.2,34.7 M76.3,42.1c-5.4,4.3-5.3,4.7,0.2,0.5c1.7-1.3,3.1-2.5,3.1-2.7
		C79.6,39.5,79.8,39.4,76.3,42.1 M320.5,39.9c0.2,0.7,7.1,6,7.1,5.6c0-0.1-1.6-1.5-3.6-3.1C321.9,40.8,320.4,39.7,320.5,39.9
		 M68.8,48.4c-1.4,1.3-1.9,1.9-1,1.2c2.7-2.1,4.4-3.6,4-3.6C71.6,46,70.2,47.1,68.8,48.4 M329.8,47.7c3.2,2.8,4.2,3.3,1.4,0.7
		c-1.4-1.3-2.8-2.4-3-2.4C328,46,328.8,46.8,329.8,47.7 M62.6,54.1l-2.8,2.9l2.9-2.5c2.4-2.1,3.4-3.2,2.8-3.2
		C65.4,51.2,64.1,52.5,62.6,54.1 M334.4,51.5c0,0.4,4.8,4.9,6,5.5c0.3,0.2,0.5,0.3,0.4,0.2c-0.1-0.1-1.6-1.5-3.3-3.1
		S334.4,51.3,334.4,51.5 M345.6,62.8c1.4,1.5,2.7,2.8,2.9,2.8c0.2,0-0.8-1.3-2.3-2.8c-1.5-1.5-2.8-2.8-2.9-2.8
		C343.2,60,344.3,61.3,345.6,62.8 M53.6,63c-1.4,1.5-2.3,2.6-2,2.5c0.5-0.2,5.1-5.1,4.8-5.1C56.3,60.4,55,61.6,53.6,63 M134.8,60.8
		c0,0.2,0.5,0.4,1.2,0.4s1.2-0.2,1.2-0.4c0-0.2-0.5-0.4-1.2-0.4S134.8,60.6,134.8,60.8 M215.6,60.8c0,0.2,0.5,0.4,1,0.4
		c0.6,0,0.9-0.2,0.8-0.4c-0.1-0.2-0.6-0.4-1-0.4C215.9,60.4,215.6,60.6,215.6,60.8 M130.6,61.2c-0.1,0.2,0.2,0.4,0.8,0.4
		c0.6,0,1-0.2,1-0.4c0-0.2-0.3-0.4-0.8-0.4C131.2,60.8,130.7,61,130.6,61.2 M127.8,61.6c-0.1,0.2,0.1,0.4,0.6,0.4
		c0.5,0,0.8-0.2,0.8-0.4c0-0.2-0.3-0.4-0.6-0.4C128.3,61.2,127.9,61.4,127.8,61.6 M125.2,62c0,0.2,0.3,0.4,0.6,0.4
		c0.3,0,0.6-0.2,0.6-0.4s-0.3-0.4-0.6-0.4C125.5,61.6,125.2,61.8,125.2,62 M237.4,65.1c-0.1,0.2,0.3,0.6,1,0.8
		c1.6,0.6,2.1,0.6,1.7,0c-0.1-0.2-0.4-0.3-0.5-0.2c-0.1,0.1-0.5,0-0.8-0.2c-0.3-0.2-0.5-0.3-0.5-0.1c0,0.2-0.2,0.1-0.3-0.2
		C237.8,64.9,237.6,64.9,237.4,65.1 M48.2,68.9C47,70.3,46,71.6,46,71.8c0,0.3,1.1-0.8,3.6-3.9C51.6,65.5,50.7,66.2,48.2,68.9
		 M350.9,68.3c1,1.2,2.1,2.5,2.4,3c0.4,0.5,0.7,0.7,0.7,0.5c0-0.2-1.1-1.6-2.4-3C349.4,66.5,349.3,66.4,350.9,68.3 M102.4,69.4
		c-1.4,0.7-2.4,1.4-2.2,1.4c0.2,0,1.6-0.6,3-1.4s2.4-1.4,2.2-1.4S103.8,68.7,102.4,69.4 M246,68.9c0.4,0.4,2.8,1.5,2.8,1.3
		c0-0.2-2.2-1.4-2.6-1.4C246,68.8,245.9,68.9,246,68.9 M249.2,70.6c0,0.1,0.6,0.5,1.3,0.8l1.3,0.6l-1-0.8
		C249.8,70.4,249.2,70.2,249.2,70.6 M252,72.1c0.1,0.1,1.6,1.2,3.4,2.5c1.7,1.2,3.8,2.7,4.6,3.3c0.9,0.6,1.2,0.8,0.9,0.3
		c-0.6-0.8-6.4-5-8.1-5.9C252.2,72.1,251.9,72,252,72.1 M42.4,76c-1.6,2-2.7,3.6-2.5,3.6c0.3,0,4.6-5.3,5.4-6.7
		C46.2,71.5,45,72.8,42.4,76 M354.7,72.9c1,1.6,5.1,6.7,5.4,6.7c0.2,0-0.9-1.6-2.5-3.6C355.1,72.8,353.8,71.4,354.7,72.9 M90.4,77
		c-2.2,1.8-2.2,1.8-1.8,1.7c0.4,0,4.1-3.2,3.8-3.2C92.3,75.6,91.4,76.3,90.4,77 M262.3,79.8c0.5,0.7,2,2.3,3.3,3.6
		c1.4,1.4,2.1,1.9,1.7,1.2c-0.5-0.7-2-2.3-3.3-3.6C262.6,79.6,261.8,79.1,262.3,79.8 M85.1,81.9c-1.5,1.5-2.7,2.9-2.7,3.1
		c0,0.5,4.7-4.1,5.2-5.1C88.3,78.8,87.9,79,85.1,81.9 M35.6,85c-0.7,1-1.1,1.8-0.9,1.8s0.9-0.8,1.6-1.8c0.7-1,1.1-1.8,0.9-1.8
		C37,83.2,36.3,84,35.6,85 M364.7,86.4c1.4,2.1,2,2.1,0.6,0c-0.6-0.9-1.2-1.6-1.4-1.6C363.8,84.8,364.1,85.5,364.7,86.4 M79.4,88.1
		c-2.3,2.9-3,4-1.2,1.9c0.7-0.8,1.8-1.9,2.5-2.6c1.2-1.1,1.6-1.9,1-1.9C81.5,85.6,80.5,86.7,79.4,88.1 M268.4,86.2
		c0,0.2,0.6,1.1,1.4,2c0.8,0.9,1.4,1.4,1.4,1.2c0-0.2-0.6-1.1-1.4-2C269,86.5,268.4,86,268.4,86.2 M30.3,93.1
		c-3.2,5-3.9,6.3-3.9,6.8c0,0.2,1.1-1.5,2.5-3.7s3-4.8,3.6-5.7c0.7-1,1.1-1.8,1-1.9C33.4,88.4,31.9,90.5,30.3,93.1 M366.4,88.5
		c0,0.2,0.7,1.4,1.6,2.7c0.9,1.3,2.5,3.9,3.6,5.7c1.1,1.8,2,3.1,2,2.9c0-0.4-6.1-10.4-6.8-11.1C366.6,88.4,366.4,88.4,366.4,88.5
		 M272.7,92c0.6,0.9,1.1,1.5,1.2,1.4c0.2-0.2-1.6-3-2-3C271.7,90.4,272.1,91.1,272.7,92 M75.7,93.1c-1,1.5-1.4,2.1-1.2,2.1
		c0.1,0,0.6-0.7,1.2-1.6C76.9,91.8,76.9,91.4,75.7,93.1 M275.2,96c0.2,0.5,0.5,0.8,0.6,0.7c0.3-0.3-0.3-1.5-0.7-1.5
		C274.9,95.2,275,95.6,275.2,96 M69.9,103.5c-1,2.1-1.9,4.1-1.9,4.3c0,0.2,0.9-1.5,2-3.8c1.1-2.3,1.9-4.2,1.9-4.3
		C71.8,99.7,70.9,101.4,69.9,103.5 M277.2,99.8c0,0.5,1.8,3.8,2.1,3.8c0.4,0,0.4-0.2-0.4-1.8c-0.4-0.8-0.8-1.4-1-1.4
		c-0.2,0-0.2-0.2-0.1-0.4c0.1-0.2,0.1-0.4-0.2-0.4S277.2,99.7,277.2,99.8 M23.6,104.8c-0.4,0.9-0.7,1.6-0.6,1.6c0.1,0,0.6-0.7,1-1.6
		c0.4-0.9,0.7-1.6,0.6-1.6C24.5,103.2,24,103.9,23.6,104.8 M376.2,105.2c0.6,1.1,1.1,2,1.2,2c0.1,0-0.3-0.9-0.8-2
		c-0.6-1.1-1.1-2-1.2-2C375.3,103.2,375.6,104.1,376.2,105.2 M279.2,104.3c0,0.5,0.7,1.5,1,1.2c0.3-0.3-0.2-1.5-0.6-1.5
		C279.4,104,279.2,104.1,279.2,104.3 M20,111.6c-0.3,0.4-0.5,0.9-0.4,1c0.1,0.2-0.1,0.4-0.3,0.5c-0.6,0.4-2.2,3.7-1.9,4
		c0.3,0.3,0.4,0.3,2-3C20.8,111.2,21.1,110.1,20,111.6 M379.2,111c0,0.1,0.9,1.9,1.9,3.9c1,2,1.9,3.8,1.8,4s0.1,0.3,0.3,0.3
		c0.6,0,0.5-0.2-1.2-3.8C380.7,112.4,379.2,110.2,379.2,111 M146,116.8c0,0.2,0.3,0.4,0.6,0.4c0.3,0,0.6-0.2,0.6-0.4
		c0-0.2-0.3-0.4-0.6-0.4C146.3,116.4,146,116.6,146,116.8 M209.2,116.8c0,0.2,0.3,0.4,0.6,0.4s0.6-0.2,0.6-0.4
		c0-0.2-0.3-0.4-0.6-0.4S209.2,116.6,209.2,116.8 M16.6,118.2c-0.3,0.9-0.3,1,0.2,1c0.2,0,0.3-0.2,0.2-0.4c-0.1-0.2,0-0.4,0.3-0.5
		c0.3-0.1,0.4-0.2,0-0.4C17.1,117.7,16.8,117.9,16.6,118.2 M138.3,118.9c-0.9,0.5-2.4,1.9-2,1.9c0.5,0,3.4-1.8,3.4-2.1
		C139.6,118.3,139.1,118.3,138.3,118.9 M216.8,119.1c0,0.3,0.4,0.7,0.8,0.9c0.6,0.3,0.8,0.3,0.7,0c-0.1-0.3-0.3-0.4-0.5-0.4
		c-0.2,0-0.5-0.2-0.7-0.5C216.9,118.8,216.8,118.7,216.8,119.1 M222.4,123.6c1.3,1.3,2.6,2.4,2.7,2.4s-0.8-1.1-2.1-2.4
		s-2.5-2.4-2.7-2.4S221,122.3,222.4,123.6 M132,123.8c-0.7,0.8-1.2,1.4-1,1.4s1-0.6,1.8-1.4c0.7-0.8,1.2-1.4,1-1.4
		S132.7,123,132,123.8 M13.8,125.1c-0.4,1,0,1.1,0.5,0.2c0.2-0.5,0.3-0.8,0.1-0.8C14.3,124.4,14,124.7,13.8,125.1 M225.2,126.7
		c0,0.2,0.4,0.7,0.9,1.1c0.9,0.8,0.9,0.8,0.4-0.1C225.9,126.8,225.2,126.2,225.2,126.7 M226.8,129c0,0.2,0.3,0.8,0.6,1.2
		c0.3,0.4,0.6,0.6,0.6,0.4c0-0.2-0.3-0.8-0.6-1.2C227.1,128.9,226.8,128.8,226.8,129 M285.3,131c0,1.3,0.1,1.8,0.2,1.1
		c0.1-0.7,0.1-1.8,0-2.4C285.4,129.1,285.3,129.7,285.3,131 M62.2,131.3c-0.2,0.6-0.2,1.2-0.1,1.4c0.4,0.4,0.7-0.2,0.6-1.3l-0.2-1.1
		L62.2,131.3 M285.7,138.2c0,0.9,0.1,1.2,0.2,0.7c0.1-0.5,0.1-1.2,0-1.6C285.8,136.9,285.7,137.3,285.7,138.2 M125.3,140.8
		c0,1.4,0.1,2,0.2,1.3c0.1-0.7,0.1-1.9,0-2.6C125.4,138.8,125.3,139.4,125.3,140.8 M285.7,150.4c0,1,0.1,1.4,0.2,0.9
		c0.1-0.5,0.1-1.3,0-1.8C285.8,149,285.7,149.4,285.7,150.4 M127.2,150.6c0,0.4,1.2,2.6,1.4,2.6c0.1,0-0.1-0.6-0.5-1.3
		C127.4,150.4,127.2,150.1,127.2,150.6 M129.2,154.3c0.2,0.5,0.6,0.9,0.9,1.1c0.3,0.2,0.3,0,0-0.6c-0.2-0.5-0.6-0.9-0.9-1.1
		C128.8,153.6,128.8,153.7,129.2,154.3 M132.2,158.2c1.1,1.2,2.1,2.2,2.3,2.2s0.7,0.4,1.1,0.8c0.4,0.4,1,0.8,1.2,0.8
		c0.8,0,0.4-0.6-0.8-1.3c-0.7-0.4-2.1-1.6-3.2-2.7C130.1,155.4,129.8,155.5,132.2,158.2 M223.4,158c-0.4,0.4-0.5,0.8-0.3,0.8
		s0.7-0.4,1.1-0.8c0.4-0.4,0.5-0.8,0.3-0.8S223.8,157.6,223.4,158 M221.5,159.6c-0.8,0.4-0.9,1.2-0.3,1.2c0.2,0,0.6-0.4,0.8-0.8
		C222.5,159.1,222.5,159.1,221.5,159.6 M137.6,162.4c0,0.4,2.3,1.4,2.6,1.1c0.1-0.1-0.3-0.5-1-0.9
		C137.9,161.9,137.6,161.9,137.6,162.4 M148.6,165.2c-0.2,0.3,6.5,0.4,19.6,0.4c13.1,0,19.8-0.1,19.6-0.4c-0.2-0.3-7.1-0.4-19.6-0.4
		S148.8,164.9,148.6,165.2 M286.5,168.3c0.4,0.1,1,0.1,1.4,0c0.4-0.1,0.1-0.2-0.7-0.2C286.4,168.1,286.1,168.2,286.5,168.3
		 M314,174.8c1.6,0.9,3.6,2.1,4.3,2.6c0.7,0.6,1.4,0.9,1.5,0.8c0.3-0.3-3.2-2.5-6.2-4C310.5,172.6,310.7,173,314,174.8 M325.6,183.9
		c0,0.2,0.4,0.7,0.8,1.1s0.8,0.5,0.8,0.3s-0.4-0.7-0.8-1.1C326,183.8,325.6,183.7,325.6,183.9 M327.6,186.2c0,0.2,0.4,0.9,1,1.6
		c0.6,0.7,0.8,0.8,0.6,0.4C328.7,187,327.6,185.7,327.6,186.2 M0.1,188.4c0,0.8,0.1,1.1,0.2,0.7c0.1-0.4,0.1-1,0-1.4
		C0.2,187.3,0.1,187.6,0.1,188.4 M399.7,188.6c0,0.9,0.1,1.2,0.2,0.7c0.1-0.5,0.1-1.2,0-1.6C399.8,187.3,399.7,187.7,399.7,188.6
		 M335.6,205.4c0,0.3,0.2,0.6,0.4,0.6s0.4-0.3,0.4-0.6c0-0.3-0.2-0.6-0.4-0.6S335.6,205.1,335.6,205.4 M336.4,210.4
		c0,0.5,0.2,0.8,0.4,0.8s0.4-0.3,0.4-0.6c0-0.3-0.2-0.7-0.4-0.8S336.4,209.9,336.4,210.4 M399.7,211.4c0,0.9,0.1,1.2,0.2,0.7
		c0.1-0.5,0.1-1.2,0-1.6C399.8,210.1,399.7,210.5,399.7,211.4 M0.1,211.6c0,0.8,0.1,1.1,0.2,0.7c0.1-0.4,0.1-1,0-1.4
		C0.2,210.5,0.1,210.8,0.1,211.6 M336.8,214.4c0,0.7,0.2,1.2,0.4,1.2s0.4-0.4,0.4-1c0-0.5-0.2-1.1-0.4-1.2
		C337,213.3,336.8,213.7,336.8,214.4 M337.2,222.8c0,1.9,0.2,3.2,0.4,3.2c0.2,0,0.4-1.3,0.4-3c0-1.6-0.2-3.1-0.4-3.2
		C337.3,219.6,337.2,220.7,337.2,222.8 M131,229.8c-1.3,0.8-2.8,1.9-3.4,2.5c-0.8,0.8-0.5,0.7,1-0.4c1.1-0.8,2.8-1.9,3.8-2.5
		c1-0.6,1.6-1,1.3-1C133.5,228.4,132.3,229,131,229.8 M266.8,229.4c1,0.6,1.8,0.9,1.9,0.8c0.2-0.2-2.8-1.8-3.4-1.8
		C265.1,228.4,265.8,228.9,266.8,229.4 M269.9,231.2c0.5,0.5,1,0.8,1.1,0.7c0.1-0.1-0.3-0.5-0.9-0.9l-1.1-0.7L269.9,231.2
		 M272.8,233.8c0.5,0.6,1,0.9,1.1,0.8c0.3-0.3-1.2-1.8-1.7-1.8C272,232.8,272.3,233.2,272.8,233.8 M123.9,236.1
		c-1.6,2.2-2.3,3.3-2.3,3.7c0,0.3,2.3-2.7,3.3-4.5C125.6,234.3,124.8,234.9,123.9,236.1 M276,237.3c0,0.2,0.4,0.9,0.8,1.6
		c0.4,0.7,0.8,1.1,0.8,0.9c0-0.2-0.4-0.9-0.8-1.6C276.4,237.5,276,237.1,276,237.3 M279.6,247c0,0.3,0.2,0.6,0.4,0.6
		s0.4-0.3,0.4-0.6s-0.2-0.6-0.4-0.6S279.6,246.7,279.6,247 M118.8,247.4c0,0.3,0.2,0.6,0.4,0.6c0.2,0,0.4-0.3,0.4-0.6
		c0-0.3-0.2-0.6-0.4-0.6C119,246.8,118.8,247.1,118.8,247.4 M118.8,254.6c0,0.3,0.2,0.6,0.4,0.6c0.2,0,0.4-0.3,0.4-0.6
		c0-0.3-0.2-0.6-0.4-0.6C119,254,118.8,254.3,118.8,254.6 M279.6,255c0,0.3,0.2,0.6,0.4,0.6s0.4-0.3,0.4-0.6s-0.2-0.6-0.4-0.6
		S279.6,254.7,279.6,255 M337.2,257c0,0.8,0.2,1.3,0.4,1.2c0.2-0.1,0.4-0.8,0.4-1.4s-0.2-1.2-0.4-1.2S337.2,256.2,337.2,257
		 M62.3,256.3c-0.4,0.4-0.3,2.9,0.1,3.1c0.2,0.2,0.4-0.5,0.4-1.6C62.8,256,62.7,255.8,62.3,256.3 M277.4,261.9
		c-1.4,3-5.3,7.5-8.3,9.4c-2.4,1.6-2.6,1.9-0.3,0.7c3.6-2,10.5-10.6,9.8-12.3C278.7,259.4,278.1,260.5,277.4,261.9 M120.8,260.6
		c0,0.6,2.7,5,3.5,5.8c0.6,0.5,0.6,0.5,0-0.4c-0.4-0.5-1.3-2.1-2.1-3.4C121.4,261.3,120.8,260.4,120.8,260.6 M336.8,262
		c0,0.5,0.2,0.7,0.4,0.6c0.2-0.1,0.4-0.5,0.4-0.8s-0.2-0.6-0.4-0.6S336.8,261.6,336.8,262 M62.4,264.1c0,1.1,0.8,1.7,0.8,0.6
		c0-0.6-0.2-1.1-0.4-1.1C62.6,263.6,62.4,263.8,62.4,264.1 M125.2,267.5c0,0.5,1.5,1.9,1.8,1.7c0.1-0.1-0.3-0.6-0.8-1.1
		C125.6,267.5,125.2,267.2,125.2,267.5 M336,267.8c0,0.3,0.2,0.6,0.4,0.6s0.4-0.3,0.4-0.6c0-0.3-0.2-0.6-0.4-0.6
		S336,267.5,336,267.8 M62.8,268.6c0,0.3,0.2,0.7,0.4,0.8c0.2,0.1,0.4-0.1,0.4-0.6s-0.2-0.8-0.4-0.8C63,268,62.8,268.3,62.8,268.6
		 M130.4,271.8c0,0.3,3.2,1.9,3.4,1.7c0.1-0.1-0.7-0.5-1.6-1C131.2,272,130.4,271.7,130.4,271.8 M265.2,273.4
		c-0.6,0.3-0.8,0.6-0.6,0.6s0.9-0.3,1.4-0.6s0.8-0.6,0.6-0.6S265.8,273.1,265.2,273.4 M13.6,274.2c0,0.6,0.7,1.6,1,1.4
		c0.1-0.1,0-0.6-0.4-1C13.9,274.1,13.6,274,13.6,274.2 M385.6,274.8c-0.2,0.5-0.3,0.8-0.1,0.8c0.4,0,1-1.2,0.7-1.5
		C386.1,274,385.9,274.3,385.6,274.8 M16,280.3c0,0.8,1.1,2.2,1.4,1.8c0.2-0.3,0.1-0.5-0.2-0.5c-0.2,0-0.3-0.2-0.2-0.4
		s0-0.4-0.2-0.4c-0.2,0-0.3-0.2-0.2-0.4s0.1-0.4-0.2-0.4S16,280.1,16,280.3 M383.4,280.4c0.1,0.2,0,0.4-0.2,0.4
		c-0.3,0-0.4,0.1-0.3,0.2c0.1,0.1-0.6,1.7-1.5,3.6c-1.9,3.6-1.9,3.8-1.4,3.8c0.3,0,4.1-7.6,4.1-8.2c0-0.1-0.2-0.2-0.4-0.2
		S383.3,280.2,383.4,280.4 M17.2,283c0,0.5,1.8,3.8,2.1,3.8c0.2,0,0.3,0.1,0.1,0.3c-0.2,0.4,0.4,1.5,0.7,1.3
		c0.3-0.3-2.2-5.6-2.6-5.6C17.4,282.8,17.2,282.9,17.2,283 M329.7,290.6c-0.7,1.5-0.5,1.8,0.2,0.4c0.3-0.6,0.5-1.2,0.4-1.3
		C330.2,289.7,329.9,290.1,329.7,290.6 M376.4,294.4c-0.4,0.9-0.7,1.6-0.6,1.6c0.1,0,0.6-0.7,1-1.6c0.4-0.9,0.7-1.6,0.6-1.6
		C377.3,292.8,376.8,293.5,376.4,294.4 M326.9,296.5c-0.9,1.8-1.6,3.3-1.6,3.4c0.1,0.1,0.9-1.3,1.8-3.1c0.9-1.8,1.6-3.3,1.6-3.4
		C328.7,293.3,327.8,294.7,326.9,296.5 M23.4,294.8c0.3,0.7,0.7,1.2,0.8,1.2c0.1,0-0.1-0.5-0.4-1.2c-0.3-0.7-0.7-1.2-0.8-1.2
		S23.1,294.1,23.4,294.8 M69.2,294.9c0,0.4,2.1,5.2,2.2,5c0.1-0.1-0.4-1.3-1-2.7C69.8,295.8,69.2,294.7,69.2,294.9 M26.4,300.1
		c0,0.8,6.8,11.6,7.1,11.3c0.1-0.1-0.3-1-1-1.9c-0.7-1-2.3-3.5-3.6-5.7S26.4,300,26.4,300.1 M372.3,302c-0.6,1.1-2.2,3.6-3.5,5.6
		c-1.3,2-2.4,3.8-2.3,3.9c0.2,0.2,3.3-4.5,5.7-8.7c0.8-1.4,1.4-2.5,1.3-2.6C373.4,300.1,372.9,300.9,372.3,302 M322,304.9
		c-0.5,0.7-1.3,1.8-1.9,2.4c-0.6,0.6-0.9,1.1-0.6,1.1c0.4,0,2.5-2.7,3.4-4.3C323.6,303,322.8,303.7,322,304.9 M75.5,307.4
		c0.6,1.2,2.5,3.6,2.5,3.3c0-0.2-0.5-1-1.1-1.8C75.5,306.9,75,306.4,75.5,307.4 M317.9,309.9c-0.7,0.8-0.9,1.3-0.4,1.3
		c0.4,0,1.8-2,1.4-2C318.7,309.2,318.2,309.5,317.9,309.9 M312.6,315.6c-4.3,4.3-4.7,5.4-0.8,1.8c2.6-2.3,5.7-5.8,5.1-5.8
		C316.7,311.6,314.8,313.4,312.6,315.6 M35,314.2c0.4,0.5,0.8,1,1,1s0.1-0.5-0.3-1c-0.4-0.6-0.8-1-1-1S34.7,313.6,35,314.2
		 M80.6,314.1c2.5,3,6.6,6.8,6.6,6.1c0-0.4-6.5-7-6.9-7C80.1,313.2,80.2,313.6,80.6,314.1 M364.3,314.2c-0.4,0.6-0.7,1.1-0.5,1.2
		c0.1,0.1,0.6-0.4,1.1-1s0.7-1.2,0.5-1.2C365.1,313.2,364.7,313.7,364.3,314.2 M37.6,317.8c0.3,0.3,0.7,0.6,0.9,0.6
		c0.2,0,0.2-0.3-0.1-0.6c-0.3-0.3-0.7-0.6-0.9-0.6C37.3,317.2,37.3,317.5,37.6,317.8 M306.4,321.6l-1.8,1.8l1.8-1.3
		c2.4-1.8,2.5-1.9,2.1-2C308.4,319.9,307.4,320.6,306.4,321.6 M42.4,324c1.6,2,3,3.6,3.1,3.6c0.5,0-4.9-6.9-5.6-7.1
		C39.7,320.4,40.8,321.9,42.4,324 M358.2,322.5c-1.8,2.4-2.3,3.1-2,3.1c0.1,0,1.1-1.2,2.2-2.6s1.9-2.6,1.7-2.6
		S359.1,321.3,358.2,322.5 M88.4,321.6c2,1.5,4.4,3.2,4.4,3.1c0-0.3-4.8-3.9-5.1-3.9C87.5,320.8,87.8,321.2,88.4,321.6 M300.5,325.6
		c-1.4,0.9-4.2,2.5-6.2,3.6s-3.5,2-3.4,2c0.9,0,11.6-6,12.1-6.8C303.3,323.9,303.4,323.9,300.5,325.6 M46,328.2c0,0.2,1.1,1.6,2.4,3
		c1.3,1.4,1.9,1.9,1.2,1C47.5,329.5,46,327.8,46,328.2 M352.8,329.3l-0.9,1.3l1.1-1.1c0.6-0.6,1-1.2,0.9-1.3
		C353.8,328.1,353.3,328.6,352.8,329.3 M101.2,329.8c0.6,0.3,1.2,0.6,1.4,0.6s0-0.3-0.6-0.6c-0.6-0.3-1.2-0.6-1.4-0.6
		S100.7,329.5,101.2,329.8 M104.4,331.2c0.8,0.4,1.6,0.8,1.8,0.8c0.2,0-0.2-0.3-1-0.8c-0.8-0.4-1.6-0.8-1.8-0.8
		S103.6,330.8,104.4,331.2 M350.2,332.3l-1.1,1.5l1.3-1.3c0.7-0.7,1.2-1.4,1.1-1.5C351.5,330.9,350.9,331.5,350.2,332.3 M54,337.5
		c1.6,1.7,3,3.2,3.1,3.3c0.1,0.1,0-0.1-0.2-0.4c-0.6-1.2-5.1-6-5.5-6C51.3,334.4,52.4,335.8,54,337.5 M345.6,337.3l-2.5,2.9l2.9-2.8
		c1.6-1.5,2.9-2.8,2.9-2.9C348.8,333.9,347.7,334.9,345.6,337.3 M272,337.2c0,0.2,0.3,0.4,0.6,0.4c0.3,0,0.6-0.2,0.6-0.4
		s-0.3-0.4-0.6-0.4C272.3,336.8,272,337,272,337.2 M125.2,337.6c0,0.2,0.3,0.4,0.6,0.4c0.3,0,0.6-0.2,0.6-0.4s-0.3-0.4-0.6-0.4
		C125.5,337.2,125.2,337.4,125.2,337.6 M127.2,338c0,0.2,0.3,0.4,0.6,0.4s0.6-0.2,0.6-0.4s-0.3-0.4-0.6-0.4S127.2,337.8,127.2,338
		 M268,338c0,0.2,0.3,0.4,0.6,0.4c0.3,0,0.6-0.2,0.6-0.4s-0.3-0.4-0.6-0.4C268.3,337.6,268,337.8,268,338 M130.2,338.4
		c0.1,0.2,0.5,0.4,0.8,0.4s0.6-0.2,0.6-0.4s-0.4-0.4-0.8-0.4S130.1,338.2,130.2,338.4 M133.2,338.8c0,0.2,0.4,0.4,0.8,0.4
		s0.8-0.2,0.8-0.4s-0.4-0.4-0.8-0.4S133.2,338.6,133.2,338.8 M262,338.8c0,0.2,0.4,0.4,0.8,0.4s0.8-0.2,0.8-0.4s-0.4-0.4-0.8-0.4
		S262,338.6,262,338.8 M137.6,339.2c0,0.2,0.6,0.4,1.4,0.4c0.8,0,1.3-0.2,1.2-0.4c-0.1-0.2-0.8-0.4-1.4-0.4S137.6,339,137.6,339.2
		 M257.2,339.2c0,0.2,0.6,0.4,1.2,0.4c0.7,0,1.1-0.2,1-0.4c-0.1-0.2-0.7-0.4-1.2-0.4C257.6,338.8,257.2,339,257.2,339.2 M62.4,345.9
		c1.7,1.7,3.2,3,3.4,2.9c0.2-0.2-5.9-5.9-6.3-5.9C59.4,342.8,60.7,344.2,62.4,345.9 M337,345.8c-1.5,1.4-2.7,2.7-2.6,2.8
		c0.1,0.1,1.5-1,3-2.6C340.9,342.5,340.7,342.4,337,345.8 M67.5,350.4c0.7,0.7,1.4,1.2,1.5,1.1c0.1-0.1-0.5-0.7-1.3-1.3l-1.5-1.1
		L67.5,350.4 M332,350.4c-0.8,0.7-1.2,1.2-1,1.2c0.2,0,0.9-0.5,1.6-1.2C334.1,348.9,333.8,348.9,332,350.4 M70.5,353
		c0.6,0.6,1.2,1,1.3,0.9c0.1-0.1-0.4-0.6-1.1-1.1l-1.3-0.9L70.5,353 M329,353c-0.7,0.5-1,1-0.8,1c0.2,0,0.9-0.4,1.4-1
		C330.8,351.7,330.5,351.7,329,353 M74.4,356.1c0,0.1,1.2,1.1,2.6,2.2s2.6,1.9,2.6,1.7c0-0.2-0.9-1.1-2.1-1.9
		C75.1,356.3,74.4,355.9,74.4,356.1 M323,357.8c-1.3,1-2.4,2-2.5,2.2c-0.1,0.2,1-0.5,2.5-1.7c2.4-1.9,2.9-2.4,2.5-2.4
		C325.4,356,324.3,356.8,323,357.8 M84.4,363.7c0,0.1,0.8,0.8,1.8,1.5c1,0.7,1.8,1.1,1.8,0.9c0-0.2-0.7-0.8-1.5-1.3
		C84.7,363.6,84.4,363.5,84.4,363.7 M314,364.4c-1.2,1-0.9,1.3,0.4,0.4c0.5-0.4,0.9-0.8,0.8-0.9S314.6,364,314,364.4 M88.4,366.6
		c0,0.4,11.2,7.2,11.4,6.9c0.1-0.1-0.7-0.7-1.8-1.2c-1.1-0.6-3.6-2.1-5.6-3.5C88.9,366.5,88.4,366.2,88.4,366.6 M309.2,367.7
		c-1,0.7-3.5,2.3-5.6,3.6c-2.1,1.3-3.6,2.3-3.4,2.3c0.4,0,10.4-6.1,11.1-6.8C312.2,365.9,310.9,366.5,309.2,367.7 M104,375.8
		c0,0.1,0.9,0.7,2,1.2s2,0.9,2,0.8c0-0.1-0.9-0.7-2-1.2S104,375.7,104,375.8 M294.7,376.2c-1.5,0.8-1.4,1.1,0.1,0.4
		c0.7-0.3,1.2-0.7,1.2-0.8C296,375.5,296,375.5,294.7,376.2 M111.4,379.8c1.3,1.3,7.8,4.1,7.8,3.4c0-0.2-0.1-0.4-0.3-0.3
		s-1.9-0.8-4-1.8C111,379.1,110.4,378.8,111.4,379.8 M284.2,381.6c-1.6,0.9-3.1,1.5-3.2,1.3s-0.2,0-0.2,0.3c0,0.3-0.2,0.4-0.4,0.2
		c-0.2-0.1-0.4-0.1-0.4,0.2s0.1,0.4,0.2,0.4c0.6,0,7.4-3.4,7.4-3.7C287.6,379.8,287.5,379.9,284.2,381.6 M187.9,399.9
		c0.5,0.1,1.2,0.1,1.6,0c0.4-0.1,0-0.2-0.9-0.2C187.7,399.7,187.4,399.8,187.9,399.9 M210.9,399.9c0.4,0.1,1,0.1,1.4,0
		c0.4-0.1,0.1-0.2-0.7-0.2C210.8,399.7,210.5,399.8,210.9,399.9"/>
	<path id="path1" class="st1" d="M189.4,0.4C181,0.9,165,2.8,164,3.4c-0.2,0.1-1,0.3-1.9,0.4c-2,0.3-2.5,0.4-3.8,0.7
		c-0.5,0.1-1.4,0.3-2,0.4c-0.5,0.1-3.4,0.8-6.4,1.6C78.6,25.4,24.7,79.6,6.3,151.2c-2,7.9-2.1,8.2-2.5,11c-0.1,0.9-0.3,1.7-0.4,1.9
		c-0.3,0.5-1.8,10.8-2.4,17.6c-0.8,8-0.9,27.4-0.2,34.8c0.7,6.9,2,17.1,2.5,18.9c0.2,0.8,0.5,2.1,0.6,2.8c0.4,3.2,3.9,16.6,6.2,23.6
		c19.2,59.9,68,109,127.2,127.9c2.3,0.7,4.3,1.4,4.4,1.5c0.1,0.1,0.5,0.2,0.8,0.3c0.3,0,3.4,0.8,6.7,1.7c3.4,0.9,6.6,1.8,7.2,1.9
		c0.6,0.1,1.6,0.4,2.3,0.6c17.4,5.4,60.2,5.4,83.6-0.2c56.6-13.3,100.6-45.2,129.8-93.8c9.7-16.2,20.6-43.5,23-57.8
		c0.1-0.7,0.4-1.7,0.6-2.4c0.2-0.7,0.5-1.7,0.6-2.4s0.6-3.4,1-6c3.9-22.9,3.1-59.6-1.5-74.4c-0.2-0.7-0.5-1.7-0.6-2.4
		c-0.9-5.1-5.8-21-9.5-30.3C364,71.1,317,27.4,260.4,9.5c-1.6-0.5-3.1-1.1-3.1-1.2c-0.1-0.2-0.3-0.2-0.4-0.1c-0.2,0.1-0.9,0-1.7-0.2
		c-1.4-0.4-13.6-3.5-15-3.8c-0.4-0.1-1.4-0.3-2.2-0.4c-0.8-0.1-2-0.4-2.8-0.6C226.9,1.1,202.5-0.4,189.4,0.4 M214.8,60.3
		c0,0.2,1,0.3,2.2,0.2c1.4-0.1,2.2,0,2.2,0.2c0,0.3,0.6,0.3,1.6,0.2c0.9-0.1,1.6,0,1.6,0.2c0,0.2,0.5,0.3,1.2,0.2
		c0.7-0.1,1.2,0,1.2,0.3c0,0.2,0.3,0.3,0.6,0.2c1.8-0.7,14.6,3.4,21.8,7.1c18.6,9.3,34.6,30.2,37,48.3c0.1,0.9,0.3,1.8,0.4,2
		c0.2,0.3,0.6,2.9,0.9,6.1c0.7,6,0.9,25.2,0.4,29.8c-0.1,1.3-0.3,3.2-0.4,4.2c-0.1,1-0.5,3.2-0.8,5c-0.7,3.8-0.9,3.6,2.9,3.7
		c1.7,0,3.8,0.1,4.7,0.1c0.9,0,1.8,0.2,1.9,0.4c0.1,0.2,0.6,0.3,1,0.2c0.8-0.2,9,1.4,9.3,1.8c0.1,0.2,0.6,0.3,1.1,0.4
		c6.4,0.7,19,9.6,23.8,16.8c4.1,6.1,8.3,17.9,7.4,20.3c-0.1,0.3,0,0.6,0.2,0.6c0.3,0,0.4,0.6,0.3,1.6c-0.1,0.9,0,1.6,0.2,1.6
		c0.2,0,0.3,1.1,0.2,2.4c-0.1,1.4,0,2.4,0.2,2.4c0.2,0,0.3,3.4,0.1,9c-0.2,6.5-0.2,9,0.1,9c0.3,0,0.4,3.1,0.4,10.2
		c0,5.6-0.1,10.2-0.3,10.2s-0.2,1.3-0.2,2.8c0.1,1.6,0,2.8-0.2,2.8c-0.2,0-0.3,0.8-0.2,2c0.1,1.3,0,2-0.2,2c-0.2,0-0.3,0.3-0.2,0.6
		c0.4,1.1-2.4,15-3.1,15c-0.2,0-0.3,0.2-0.2,0.5c0.3,0.8-2.4,8.4-5,13.7c-7.7,16-19.9,28.5-35.3,36.3c-4.9,2.5-12.2,5.3-13,5
		c-0.3-0.1-0.5,0-0.5,0.1c0,0.5-8.7,2.5-9.4,2.3c-0.3-0.1-0.6,0-0.6,0.2c0,0.3-0.5,0.4-1.2,0.3c-0.7-0.1-1.2,0-1.2,0.2
		c0,0.2-0.5,0.3-1.2,0.2c-0.7-0.1-1.2,0-1.2,0.2s-0.8,0.3-1.8,0.2c-1-0.1-1.8,0-1.8,0.2c0,0.2-1.2,0.3-2.6,0.2
		c-1.4-0.1-2.6,0-2.6,0.2S230.6,340,199,340s-57.4-0.2-57.4-0.3c0-0.2-1.4-0.3-3-0.1c-1.7,0.1-3,0-3-0.2c0-0.2-1.5-0.4-3.3-0.4
		c-1.8,0-3.3-0.2-3.4-0.5c-0.1-0.2-0.4-0.3-0.8-0.2c-0.9,0.2-8.1-1.2-13.2-2.7c-21.6-6.3-37.9-20.5-45.8-39.9
		c-2.7-6.7-6.4-22-5.7-23.9c0.1-0.3,0-0.6-0.2-0.6c-0.3,0-0.4-0.7-0.3-1.8c0.1-1,0-1.8-0.2-1.8c-0.2,0-0.3-1.1-0.2-2.4
		c0.1-1.4,0-2.4-0.2-2.4c-0.2,0-0.3-1.7-0.2-4.4c0.1-2.4,0-4.5-0.1-4.6c-0.4-0.3-0.5-120.2,0-120.2c0.2,0,0.2-1.1,0.2-2.4
		c-0.1-1.3,0-2.4,0.2-2.4c0.2,0,0.3-0.6,0.2-1.4c-0.1-0.9,0-1.4,0.3-1.4c0.3,0,0.4-0.2,0.2-0.4c-0.3-0.5,0.6-6,0.9-6
		c0.1,0,0.3-0.7,0.3-1.5s0.3-1.6,0.5-1.6c0.2-0.1,0.3-0.4,0.2-0.6c-0.3-0.7,2.4-8.1,4.4-12.5c11.1-23.6,37.2-41.7,60.7-42.3
		c1.5,0,2.7-0.2,2.7-0.4c0-0.2,1.3-0.3,3-0.1c1.7,0.1,3,0.1,3-0.1c0-0.2,15.1-0.4,38-0.4C197.7,60,214.8,60.2,214.8,60.3 M175,116.9
		c-7,0.2-16.5,0.3-21.1,0.2c-4.6-0.1-8.3,0-8.4,0.1c-0.1,0.1-1.3,0.5-2.7,0.9c-11.5,3.2-19.2,16.3-16.3,28.1
		c2.6,10.3,8.6,15.7,20.5,18.4c1.5,0.3,60.6,0.5,60.8,0.2c0.1-0.2,0.8-0.4,1.6-0.4c7.9,0,17.3-8,19.5-16.6c0.6-2.3,0.9-8.9,0.5-10.2
		c-0.1-0.3-0.6-1.9-1-3.4c-2.7-8.9-10.8-16-19.2-16.9c-1.2-0.1-2.1-0.4-2.1-0.6C207.2,116.3,193,116.4,175,116.9 M138.6,227.6
		c-0.1,0.2-0.5,0.4-0.7,0.3c-1-0.2-6.7,2.5-8.8,4.1c-3.7,2.8-8.7,9.8-8.7,12.2c0,0.3-0.1,0.6-0.3,0.6c-0.2,0-0.4,2.3-0.4,5.1
		c-0.1,2.8-0.2,5.2-0.3,5.4c-0.1,0.1,0,0.3,0.1,0.4c0.2,0.1,0.7,1.4,1.3,3c2,5.9,6.4,10.9,12.3,13.8c3.3,1.6,3.8,1.8,6.7,2.3
		c2.1,0.4,117.5,0.4,119.6,0c3-0.5,3.5-0.7,6.9-2.4c7.1-3.4,13.3-11.9,13.3-18.3c0-0.8,0.2-1.3,0.4-1.1c0.2,0.2,0.4-0.6,0.4-2
		s-0.2-2.2-0.4-2c-0.2,0.1-0.4-0.2-0.4-0.9c0-7.3-7.5-16.5-15.6-19.3c-1.4-0.5-2.9-1-3.3-1.2C259.7,227.1,138.9,227.1,138.6,227.6"
		/>
	<path id="path2" class="st2" d="M192.7,0.3c0.5,0.1,1.2,0.1,1.6,0c0.4-0.1,0-0.2-0.9-0.2C192.5,0.1,192.2,0.2,192.7,0.3 M205.9,0.3
		c0.5,0.1,1.2,0.1,1.6,0c0.4-0.1,0-0.2-0.9-0.2C205.7,0.1,205.4,0.2,205.9,0.3 M246,5.6c0.6,0.2,1.4,0.3,1.8,0.3
		c0.6,0,0.6-0.1-0.2-0.3c-0.6-0.2-1.4-0.3-1.8-0.3C245.2,5.3,245.2,5.3,246,5.6 M149.4,6.3c-1.3,0.3-2.2,0.7-2,0.8
		c0.2,0.1,1.7-0.2,3.2-0.6c1.5-0.4,2.4-0.8,2-0.8C152.2,5.7,150.7,6,149.4,6.3 M249,6.2c0.8,0.4,6,1.7,6.1,1.6
		c0.1-0.1-0.8-0.4-2-0.8C250.8,6.4,248.4,5.9,249,6.2 M143,8.2c-1,0.5-1,0.5-0.2,0.3c0.6-0.1,1.2-0.4,1.4-0.6
		C144.7,7.5,144.4,7.5,143,8.2 M334.6,52.4c0.9,0.9,1.7,1.6,1.8,1.6s-0.5-0.7-1.4-1.6c-0.9-0.9-1.7-1.6-1.8-1.6
		C333.1,50.8,333.7,51.5,334.6,52.4 M64.2,53.3L63,54.6l1.3-1.2c1.2-1.1,1.5-1.4,1.2-1.4C65.4,52,64.8,52.6,64.2,53.3 M138.8,60.4
		c0,0.2,0.8,0.4,1.8,0.4c1,0,1.8-0.2,1.8-0.4c0-0.2-0.8-0.4-1.8-0.4C139.6,60,138.8,60.2,138.8,60.4 M212.8,60.4
		c0,0.2,0.4,0.4,1,0.4s1-0.2,1-0.4c0-0.2-0.4-0.4-1-0.4S212.8,60.2,212.8,60.4 M132.8,60.8c0,0.2,0.3,0.4,0.6,0.4
		c0.3,0,0.6-0.2,0.6-0.4c0-0.2-0.3-0.4-0.6-0.4C133.1,60.4,132.8,60.6,132.8,60.8 M53,64.5l-1.2,1.3l1.3-1.2
		c1.2-1.1,1.5-1.4,1.2-1.4C54.2,63.2,53.6,63.8,53,64.5 M347.4,65.2c0.9,0.9,1.7,1.6,1.8,1.6c0.1,0-0.5-0.7-1.4-1.6
		c-0.9-0.9-1.7-1.6-1.8-1.6C345.9,63.6,346.5,64.3,347.4,65.2 M105.5,67.4c-1.5,0.8-1.4,1,0.1,0.4c0.7-0.3,1.2-0.6,1.2-0.8
		C106.8,66.7,106.8,66.7,105.5,67.4 M349.6,67.7c0,0.1,0.6,0.7,1.3,1.3l1.3,1.2l-1.2-1.3C349.9,67.7,349.6,67.4,349.6,67.7
		 M251.6,71.3c0,0.1,1,0.8,2.3,1.6c1.3,0.8,1.8,1.1,1.2,0.5C253.9,72.5,251.6,71.1,251.6,71.3 M262.4,79.3c0,0.1,1.4,1.5,3.1,3.1
		l3.1,3l-3-3.1C262.8,79.4,262.4,79,262.4,79.3 M148.6,116.8c-0.3,0.4,12.3,0.5,29,0c9.2-0.2,8.3-0.3-9.3-0.3
		C155.7,116.4,148.8,116.5,148.6,116.8 M207.2,116.8c0,0.2,0.3,0.4,0.6,0.4s0.6-0.2,0.6-0.4c0-0.2-0.3-0.4-0.6-0.4
		S207.2,116.6,207.2,116.8 M132.8,123.9l-1.4,1.5l1.5-1.4c0.8-0.8,1.5-1.4,1.5-1.5C134.4,122.2,134.1,122.5,132.8,123.9
		 M285.7,130.8c0,1.4,0.1,2,0.2,1.3c0.1-0.7,0.1-1.9,0-2.6C285.8,128.8,285.7,129.4,285.7,130.8 M128,130.4
		c-0.5,0.9-0.8,1.7-0.7,1.8s0.5-0.7,1-1.6C129.4,128.3,129.1,128.2,128,130.4 M61.7,163.3c0,16.3,0.1,29.1,0.2,28.3
		c0.3-3.2,0.3-58,0-58C61.7,133.6,61.6,147,61.7,163.3 M126.2,135.2c-0.2,0.7-0.2,1.3-0.1,1.4c0.1,0.1,0.3-0.4,0.4-1.1
		C126.9,133.9,126.6,133.6,126.2,135.2 M286.1,138c0,1,0.1,1.4,0.2,0.9c0.1-0.5,0.1-1.3,0-1.8C286.2,136.6,286.1,137,286.1,138
		 M125.7,140.8c0,1.2,0.1,1.7,0.2,1.1c0.1-0.6,0.1-1.6,0-2.2C125.8,139.1,125.7,139.6,125.7,140.8 M229.7,141.8
		c0,1.5,0.1,2.1,0.2,1.3s0.1-2.1,0-2.8C229.8,139.6,229.7,140.3,229.7,141.8 M286.1,144.4c0,1.7,0.1,2.3,0.2,1.5
		c0.1-0.8,0.1-2.2,0-3C286.2,142.1,286.1,142.8,286.1,144.4 M8.1,143.2c-0.2,0.7-0.3,1.2-0.2,1.2c0.3,0,1-2.1,0.8-2.3
		C8.6,142,8.3,142.5,8.1,143.2 M391.4,142.6c0.5,2.2,1.4,4.4,1.1,3c-0.1-0.8-0.5-1.9-0.8-2.6S391.3,142.2,391.4,142.6 M126,145
		c0,1.2,1.1,4.9,1.6,5.2c0.3,0.2,0.3,0,0-0.6c-0.2-0.5-0.7-1.9-1-3.1C126.3,145.2,126.1,144.6,126,145 M6.1,150.5
		c-0.5,1.9-0.9,3.7-0.8,4c0,0.3,0.5-1.1,1-3.1c0.5-2,0.9-3.8,0.8-4C7,147.2,6.6,148.6,6.1,150.5 M393,148.4c0.1,0.8,0.4,1.8,0.6,2.2
		c0.2,0.5,0.3,0.4,0.1-0.6c-0.1-0.8-0.4-1.8-0.6-2.2C392.9,147.3,392.9,147.4,393,148.4 M286.1,150.6c0,1.1,0.1,1.5,0.2,0.9
		c0.1-0.6,0.1-1.5,0-2C286.2,149,286.1,149.5,286.1,150.6 M207.8,164.8c-0.1,0.2,0,0.4,0.4,0.4s0.7-0.2,0.8-0.4s0-0.4-0.4-0.4
		S207.9,164.6,207.8,164.8 M288.8,168c1.5,0.5,2.4,0.5,1.6,0c-0.3-0.2-1-0.4-1.6-0.4l-1,0L288.8,168 M305.8,171
		c0.7,0.3,1.8,0.7,2.4,0.8c1,0.2,1,0.1-0.2-0.3C305.8,170.6,304.3,170.3,305.8,171 M327.6,185.6c0.5,0.7,0.9,1.2,1.1,1.2
		c0.1,0-0.2-0.5-0.7-1.2c-0.5-0.7-0.9-1.2-1.1-1.2C326.8,184.4,327.1,184.9,327.6,185.6 M0.1,193.6c0,0.8,0.1,1.1,0.2,0.7
		c0.1-0.4,0.1-1,0-1.4C0.2,192.5,0.1,192.8,0.1,193.6 M399.7,193.6c0,0.8,0.1,1.1,0.2,0.7c0.1-0.4,0.1-1,0-1.4
		C399.8,192.5,399.7,192.8,399.7,193.6 M399.7,206.4c0,0.8,0.1,1.1,0.2,0.7c0.1-0.4,0.1-1,0-1.4
		C399.8,205.3,399.7,205.6,399.7,206.4 M0.1,206.8c0,0.8,0.1,1.1,0.2,0.7c0.1-0.4,0.1-1,0-1.4C0.2,205.7,0.1,206,0.1,206.8
		 M337.2,217.2c0,0.4,0.2,0.8,0.4,0.8s0.4-0.4,0.4-0.8s-0.2-0.8-0.4-0.8S337.2,216.8,337.2,217.2 M170.3,227.1
		c16.1,0.1,42.5,0.1,58.6,0s2.9-0.1-29.3-0.1S154.2,227,170.3,227.1 M135.7,228.1c-0.7,0.3-1.4,0.6-1.6,0.8c-0.4,0.4,2.3-0.5,2.8-1
		C137.4,227.5,137.3,227.5,135.7,228.1 M262.2,227.9c0.2,0.2,1,0.6,1.8,0.8c0.8,0.3,1.2,0.3,1,0.1c-0.2-0.2-1-0.6-1.8-0.8
		C262.4,227.8,262,227.7,262.2,227.9 M337.6,238.6c0,2.4,0.2,4.3,0.4,4.4c0.3,0.2,0.4-1.3,0.4-4.2c0-2.7-0.2-4.4-0.4-4.4
		C337.8,234.4,337.6,236.1,337.6,238.6 M5.2,245.5c-0.1,0.8,1.7,7.5,1.8,7.1c0.1-0.2-0.3-2-0.8-4C5.7,246.6,5.3,245.2,5.2,245.5
		 M61.6,249.7c0,2.2,0.1,4,0.4,4.1c0.5,0.3,0.5-6,0-7.2C61.8,246.1,61.6,247.1,61.6,249.7 M118.8,251c0,1.4,0.2,2.2,0.4,2
		c0.2-0.1,0.4-1,0.4-2s-0.2-1.9-0.4-2C119,248.8,118.8,249.6,118.8,251 M393,251.4c-0.1,0.6-0.2,1.1-0.1,1.2
		c0.1,0.1,0.3-0.3,0.4-0.9c0.1-0.6,0.2-1.1,0.1-1.2C393.4,250.4,393.2,250.8,393,251.4 M337.9,252.3c-0.4,0.4-0.3,2.5,0.1,2.5
		c0.2,0,0.4-0.6,0.4-1.4C338.4,252,338.3,251.8,337.9,252.3 M391.9,255.5c-0.4,1.3-0.6,2.4-0.5,2.4s0.4-0.9,0.8-2.1
		c0.4-1.3,0.6-2.3,0.5-2.4C392.6,253.3,392.2,254.2,391.9,255.5 M8.1,256.8c0.2,0.7,0.5,1.1,0.6,1.1c0.2-0.2-0.6-2.3-0.8-2.3
		C7.7,255.6,7.8,256.1,8.1,256.8 M62,261.8c0,0.6,0.2,1,0.4,1c0.2,0,0.4-0.3,0.4-0.8s-0.2-0.9-0.4-1C62.2,260.9,62,261.2,62,261.8
		 M62.4,266.8c0,0.5,0.2,0.8,0.4,0.8c0.2,0,0.4-0.3,0.4-0.6c0-0.3-0.2-0.7-0.4-0.8C62.6,266.1,62.4,266.3,62.4,266.8 M272.6,268.1
		l-2,2.1l2.1-2c2-1.8,2.3-2.2,2-2.2C274.6,266,273.7,266.9,272.6,268.1 M266.4,272.4c-0.8,0.4-1.3,0.8-1.1,0.8
		c0.4,0,2.7-1.2,2.7-1.4C268,271.5,268,271.5,266.4,272.4 M329,293.2c-0.4,0.7-0.6,1.3-0.5,1.4c0.1,0.1,0.5-0.5,0.8-1.2
		C330.1,291.7,329.9,291.5,329,293.2 M327.2,296.8c-0.5,0.9-0.8,1.7-0.7,1.8c0.1,0.1,0.5-0.7,1-1.6
		C328.6,294.7,328.3,294.6,327.2,296.8 M72,302.4c0.5,0.9,1,1.5,1,1.5c0.2-0.2-1.5-3-1.8-3C71.2,300.8,71.6,301.5,72,302.4
		 M313.4,316.1l-1.2,1.3l1.3-1.2c0.7-0.6,1.3-1.2,1.3-1.3C314.8,314.6,314.5,314.9,313.4,316.1 M82,316.1c0,0.1,0.6,0.7,1.3,1.3
		l1.3,1.2l-1.2-1.3C82.3,316.1,82,315.8,82,316.1 M99.6,329.4c0.4,0.4,3.6,1.8,3.6,1.7c0-0.2-3-1.8-3.5-1.8
		C99.6,329.2,99.5,329.3,99.6,329.4 M350.6,331.3l-1.2,1.3l1.3-1.2c0.7-0.6,1.3-1.2,1.3-1.3C352,329.8,351.7,330.1,350.6,331.3
		 M347.4,334.9l-1.6,1.7l1.7-1.6c1.6-1.5,1.9-1.8,1.6-1.8C349,333.2,348.3,334,347.4,334.9 M52.4,335c0.7,0.8,1.4,1.4,1.6,1.4
		s-0.4-0.6-1.2-1.4c-0.7-0.8-1.4-1.4-1.6-1.4S51.7,334.2,52.4,335 M141.6,339.6c0,0.5,1.6,0.5,2.4,0c0.4-0.3,0.2-0.4-0.9-0.4
		C142.3,339.2,141.6,339.4,141.6,339.6 M253.8,339.6c0.1,0.2,0.8,0.4,1.4,0.4s1.2-0.2,1.2-0.4s-0.6-0.4-1.4-0.4
		C254.1,339.2,253.7,339.4,253.8,339.6 M334.6,347.7l-1.6,1.7l1.7-1.6c1.6-1.5,1.9-1.8,1.6-1.8C336.2,346,335.5,346.8,334.6,347.7
		 M67.6,349.7c0,0.1,0.6,0.7,1.3,1.3l1.3,1.2l-1.2-1.3C67.9,349.7,67.6,349.4,67.6,349.7 M331,350.9l-1.2,1.3l1.3-1.2
		c0.7-0.6,1.3-1.2,1.3-1.3C332.4,349.4,332.1,349.7,331,350.9 M99.6,373c0,0.1,0.5,0.5,1.2,0.8c0.7,0.3,1.2,0.5,1.2,0.4
		c0-0.1-0.5-0.5-1.2-0.8C100.1,373.1,99.6,372.9,99.6,373 M255.2,392c-1.5,0.5-1.7,0.7-0.8,0.5c1.4-0.2,4.2-1.3,3.4-1.3
		C257.6,391.3,256.4,391.6,255.2,392 M145,392.4c0.4,0.2,1.1,0.3,1.4,0.3c0.4,0,0.3-0.1-0.2-0.3c-0.4-0.2-1.1-0.3-1.4-0.3
		C144.4,392.1,144.5,392.2,145,392.4 M147.8,393.1c0.4,0.2,1.4,0.5,2.2,0.6c1,0.2,1.1,0.1,0.6-0.1c-0.4-0.2-1.4-0.5-2.2-0.6
		C147.4,392.9,147.3,392.9,147.8,393.1 M251,393.2c-0.5,0.2-0.6,0.3-0.2,0.3c0.3,0,1-0.2,1.4-0.3c0.5-0.2,0.6-0.3,0.2-0.3
		C252.1,392.9,251.4,393,251,393.2 M192.9,399.9c0.4,0.1,1,0.1,1.4,0c0.4-0.1,0.1-0.2-0.7-0.2C192.8,399.7,192.5,399.8,192.9,399.9
		 M205.7,399.9c0.4,0.1,1,0.1,1.4,0c0.4-0.1,0.1-0.2-0.7-0.2C205.6,399.7,205.3,399.8,205.7,399.9"/>
	<path id="path3" class="st3" d="M131.7,11.7c-1.2,0.4-2.1,0.9-2,1c0.2,0.2,3.8-1.1,4.2-1.5C134.2,10.7,134.1,10.7,131.7,11.7
		 M266.2,11.1c0.5,0.4,3.1,1.3,3.3,1.1c0.1-0.1-0.7-0.4-1.8-0.8C266.7,11.1,266,10.9,266.2,11.1 M61,55.8c-2.5,2.2-3.9,3.6-5.4,5.4
		c-0.7,1,0.6-0.1,2.9-2.4c2.3-2.3,4.3-4.2,4.3-4.3C62.8,54.3,62.6,54.5,61,55.8 M341.4,58.7c2.4,2.5,4.5,4.5,4.6,4.5
		c0.6,0-4.8-5.6-7.2-7.6C337.8,54.9,339,56.3,341.4,58.7 M144.8,60.4c0,0.3,11.5,0.4,33.6,0.4s33.6-0.1,33.6-0.4
		c0-0.3-11.5-0.4-33.6-0.4S144.8,60.1,144.8,60.4 M243.6,67.4c0,0.3,2.4,1.5,2.6,1.3c0.1-0.1-0.5-0.5-1.2-0.8
		C244.2,67.5,243.6,67.3,243.6,67.4 M84.8,81.9l-2.2,2.3l2.3-2.2c2.1-2,2.5-2.4,2.2-2.4C87,79.6,86,80.6,84.8,81.9 M66.5,110.7
		c-0.2,0.8-0.3,1.3-0.1,1.1c0.4-0.4,1-2.6,0.7-2.6C67,109.2,66.7,109.9,66.5,110.7 M12.4,129.7c0,0.1-0.3,0.9-0.6,1.7
		s-0.5,1.4-0.4,1.4c0.3,0,1.4-2.9,1.2-3.1C12.5,129.6,12.4,129.6,12.4,129.7 M387.8,131.3c0.1,0.5,0.4,1.1,0.6,1.3
		c0.2,0.2,0.2-0.2-0.1-0.9C387.9,130.2,387.4,129.9,387.8,131.3 M322,179.7c0,0.1,0.8,1.1,1.8,2.1c1,1,1.8,1.7,1.8,1.5
		c0-0.2-0.8-1.1-1.8-2.1C322.8,180.2,322,179.5,322,179.7 M331.6,192.4c0.4,0.9,0.9,1.6,1,1.6c0.1,0-0.2-0.7-0.6-1.6
		c-0.4-0.9-0.9-1.6-1-1.6C330.9,190.8,331.2,191.5,331.6,192.4 M61.9,224.9c-0.1,10.6,0,19.8,0.1,20.3c0.1,0.6,0.3-8.1,0.3-19.3
		c0-11.2,0-20.3-0.1-20.3C62.1,205.6,62,214.3,61.9,224.9 M337.2,219c0,0.3,0.2,0.7,0.4,0.8s0.4,0,0.4-0.4c0-0.3-0.2-0.7-0.4-0.8
		C337.4,218.5,337.2,218.6,337.2,219 M337.6,248.1c0,1.8,0.2,3.1,0.4,3.1c0.5,0,0.5-4.8,0-5.6C337.7,245.2,337.6,246,337.6,248.1
		 M62,259.8c0,0.3,0.2,0.7,0.4,0.8c0.2,0.1,0.4,0,0.4-0.4c0-0.3-0.2-0.7-0.4-0.8C62.2,259.3,62,259.4,62,259.8 M11.4,267.5
		c0.3,0.9,0.8,2,1,2.4c0.4,0.6,0.4,0.6,0.2-0.1c-0.9-2.7-1.1-3.2-1.5-3.6C10.9,266,11,266.6,11.4,267.5 M388,268.3
		c-0.2,0.6-0.3,1.1-0.2,1.2c0.1,0.1,0.4-0.4,0.6-1.1C388.9,266.9,388.5,266.8,388,268.3 M66.6,288.5c0.2,0.5,0.4,1.1,0.6,1.3
		c0.2,0.2,0.2-0.2-0.1-0.9C66.7,287.4,66.2,287.1,66.6,288.5 M102.8,330.6c0,0.3,2.4,1.5,2.6,1.3c0.1-0.1-0.5-0.5-1.2-0.8
		S102.8,330.5,102.8,330.6 M288.1,332.4c-1.3,0.5-1.1,0.8,0.3,0.3c0.7-0.2,1.2-0.5,1.2-0.6C289.6,331.9,289.1,332,288.1,332.4
		 M341.2,341.5c-2.5,2.6-3.8,4-2.9,3.1s1.8-1.5,1.9-1.5c0.1,0.1,0.9-0.6,1.8-1.5c0.9-0.9,1.5-1.6,1.3-1.6c-0.2,0,0.4-0.7,1.2-1.6
		s1.5-1.6,1.4-1.6C345.9,336.8,343.7,338.9,341.2,341.5 M55.6,338.7c0.8,0.9,1.8,2.2,2.3,2.9c0.5,0.7,1.1,1.2,1.4,1.2
		s1.2,0.8,2.2,1.7s1.7,1.6,1.7,1.5c0-0.1-2-2.2-4.5-4.6C56.3,339,54.9,337.8,55.6,338.7 M145,339.6c1.1,0.5,107.4,0.5,108.2,0
		c0.4-0.3-18.7-0.4-54.2-0.4C168.1,339.2,144.5,339.4,145,339.6 M130.4,387.7c0,0.1,0.6,0.4,1.3,0.6c0.7,0.2,1.1,0.3,0.9,0.1
		C132.1,388,130.4,387.5,130.4,387.7 M268.1,388c-1.3,0.5-1.1,0.8,0.3,0.3c0.7-0.2,1.2-0.5,1.2-0.6
		C269.6,387.5,269.1,387.6,268.1,388"/>
	<path id="path4" class="st4" d="M142.4,60.4c0,0.2,0.5,0.4,1.2,0.4c0.7,0,1.2-0.2,1.2-0.4c0-0.2-0.5-0.4-1.2-0.4
		C142.9,60,142.4,60.2,142.4,60.4 M62.1,155c-0.1,7.7-0.2,30.5-0.3,50.6l-0.2,36.6l0.4-25.8c0.2-14.2,0.3-37,0.3-50.6
		C62.2,152,62.2,147.2,62.1,155 M337.6,243.9c0,0.6,0.2,1.4,0.4,1.7c0.3,0.4,0.4,0.2,0.4-0.9c0-0.8-0.2-1.6-0.4-1.7
		C337.8,242.9,337.6,243.2,337.6,243.9 M61.7,245c0,0.4,0.1,1.2,0.3,1.6c0.4,1,0.4,0,0-1.4C61.7,244.4,61.7,244.4,61.7,245
		 M293.6,330c-0.8,0.4-1.3,0.8-1.1,0.8c0.4,0,2.7-1.2,2.7-1.4C295.2,329.1,295.2,329.1,293.6,330"/>
</g>
</svg>
